<svg width="20" height="20" viewBox="0 0 20 20" xmlns="http://www.w3.org/2000/svg" xmlns:xlink="http://www.w3.org/1999/xlink">
    <defs>
        <path d="M14.708 5.292A6.632 6.632 0 0 0 10 3.333 6.658 6.658 0 0 0 3.342 10 6.658 6.658 0 0 0 10 16.667c3.108 0 5.7-2.125 6.442-5h-1.734A4.992 4.992 0 0 1 10 15c-2.758 0-5-2.242-5-5s2.242-5 5-5a4.93 4.93 0 0 1 3.517 1.483l-2.684 2.684h5.834V3.333l-1.959 1.959z" id="a"/>
    </defs>
    <g fill="none" fill-rule="evenodd">
        <mask id="b" fill="#fff">
            <use xlink:href="#a"/>
        </mask>
        <path mask="url(#b)" d="M0 0h20v20H0z"/>
        <path fill="#48B3CF" mask="url(#b)" d="M0 0h20v20H0z"/>
    </g>
</svg>
